name C:\Users\u0150099\Documents\master_thesis\3dpredictsim\Results\debug\Fal_s1_mtp_sd_old_MTPp_k17_d05_ig21.mot
datacolumns 126
datarows 4
range 1.06086637 1.09269236
endheader
time	pelvis_tilt	pelvis_list	pelvis_rotation	pelvis_tx	pelvis_ty	pelvis_tz	hip_flexion_l	hip_adduction_l	hip_rotation_l	hip_flexion_r	hip_adduction_r	hip_rotation_r	knee_angle_l	knee_angle_r	ankle_angle_l	ankle_angle_r	subtalar_angle_l	subtalar_angle_r	mtj_angle_l	mtj_angle_r	mtp_angle_l	mtp_angle_r	lumbar_extension	lumbar_bending	lumbar_rotation	arm_flex_l	arm_add_l	arm_rot_l	arm_flex_r	arm_add_r	arm_rot_r	elbow_flex_l	elbow_flex_r	glut_med1_l/activation	glut_med2_l/activation	glut_med3_l/activation	glut_min1_l/activation	glut_min2_l/activation	glut_min3_l/activation	semimem_l/activation	semiten_l/activation	bifemlh_l/activation	bifemsh_l/activation	sar_l/activation	add_long_l/activation	add_brev_l/activation	add_mag1_l/activation	add_mag2_l/activation	add_mag3_l/activation	tfl_l/activation	pect_l/activation	grac_l/activation	glut_max1_l/activation	glut_max2_l/activation	glut_max3_l/activation	iliacus_l/activation	psoas_l/activation	quad_fem_l/activation	gem_l/activation	peri_l/activation	rect_fem_l/activation	vas_med_l/activation	vas_int_l/activation	vas_lat_l/activation	med_gas_l/activation	lat_gas_l/activation	soleus_l/activation	tib_post_l/activation	flex_dig_l/activation	flex_hal_l/activation	tib_ant_l/activation	per_brev_l/activation	per_long_l/activation	per_tert_l/activation	ext_dig_l/activation	ext_hal_l/activation	ercspn_l/activation	intobl_l/activation	extobl_l/activation	glut_med1_r/activation	glut_med2_r/activation	glut_med3_r/activation	glut_min1_r/activation	glut_min2_r/activation	glut_min3_r/activation	semimem_r/activation	semiten_r/activation	bifemlh_r/activation	bifemsh_r/activation	sar_r/activation	add_long_r/activation	add_brev_r/activation	add_mag1_r/activation	add_mag2_r/activation	add_mag3_r/activation	tfl_r/activation	pect_r/activation	grac_r/activation	glut_max1_r/activation	glut_max2_r/activation	glut_max3_r/activation	iliacus_r/activation	psoas_r/activation	quad_fem_r/activation	gem_r/activation	peri_r/activation	rect_fem_r/activation	vas_med_r/activation	vas_int_r/activation	vas_lat_r/activation	med_gas_r/activation	lat_gas_r/activation	soleus_r/activation	tib_post_r/activation	flex_dig_r/activation	flex_hal_r/activation	tib_ant_r/activation	per_brev_r/activation	per_long_r/activation	per_tert_r/activation	ext_dig_r/activation	ext_hal_r/activation	ercspn_r/activation	intobl_r/activation	extobl_r/activation	
          1.06086637	         -2.93017651	         -1.87580794	          5.20038207	          1.41095227	          0.90275894	         -0.00382513	        -18.20326075	         -0.75039746	          8.45156696	         31.38951791	          2.85882186	         -1.37494445	         -4.50095281	        -13.66138194	          2.82201089	          6.53936038	          9.56575594	         -4.75207765	         19.60120612	         -0.13308689	         -2.64192581	          0.65602087	         -1.56611128	         10.48415300	        -13.58593081	         19.23561831	         -6.14433798	        -13.52677386	          4.26404571	         23.56080348	         15.77843582	         86.51662706	         86.51662706	          0.29538349	          0.11853800	          0.08720292	          0.40147074	          0.26612397	          0.14908226	          0.05000040	          0.05000009	          0.05000007	          0.08148740	          0.13280385	          0.05000002	          0.05000002	          0.05000004	          0.05000015	          0.05000016	          0.58859357	          0.05000011	          0.05000014	          0.05884017	          0.05528862	          0.05000051	          0.39322594	          0.69151118	          0.05000019	          0.05883745	          0.06516293	          0.28943664	          0.05000041	          0.05000037	          0.05000036	          0.35655068	          0.47409442	          0.35792559	          0.27627856	          0.38338094	          0.45306890	          0.05000006	          0.06135731	          0.13970068	          0.05000006	          0.05000001	          0.05000007	          0.05000000	          0.05000000	          0.05000000	          0.06924413	          0.05000999	          0.05000003	          0.05000026	          0.05000028	          0.05000580	          0.07778587	          0.06924411	          0.29000029	          0.05000023	          0.05000018	          0.12614660	          0.14727311	          0.16932739	          0.17081447	          0.13844644	          0.05000035	          0.05001757	          0.13208812	          0.05884064	          0.05884082	          0.11284667	          0.05000002	          0.05000003	          0.18531740	          0.05000012	          0.05000016	          0.05000002	          0.06916325	          0.07446895	          0.05875253	          0.05000001	          0.05000004	          0.05000000	          0.05884052	          0.05000120	          0.05481592	          0.45904805	          0.35966248	          0.20270075	          0.12565033	          0.42378594	          0.19096049	          0.06930927	          0.10620049	          0.11279076	
          1.07147503	         -2.92793097	         -2.07026225	          5.58474055	          1.42752100	          0.90164129	         -0.00356262	        -18.16795027	         -1.16559871	          8.27130826	         30.88571101	          3.31692971	         -1.22797431	         -6.32458593	        -13.31487502	          2.22559187	          6.14995762	         10.51643958	         -5.12672480	         20.69857263	         -0.08705688	         -2.45171390	          0.90030723	         -1.67107204	         10.34039922	        -13.53511798	         19.04509132	         -7.21749586	        -13.48586368	          4.35136254	         24.95489975	         15.67938391	         86.51662706	         86.51662706	          0.25100347	          0.10072815	          0.07410104	          0.34115147	          0.22613995	          0.12668327	          0.05000018	          0.05000004	          0.05000002	          0.06924426	          0.11285065	          0.10722866	          0.06906055	          0.05000020	          0.05000037	          0.05000013	          0.53815828	          0.10472656	          0.05000035	          0.05000032	          0.05000014	          0.05000012	          0.33414539	          0.64324034	          0.05000002	          0.05000007	          0.05537248	          0.24610668	          0.05000076	          0.05000072	          0.05000056	          0.30298040	          0.40286369	          0.33069655	          0.27104152	          0.39688146	          0.46295244	          0.05000000	          0.05884055	          0.14360227	          0.05000004	          0.05000000	          0.05000004	          0.05081547	          0.05000000	          0.05000000	          0.05884052	          0.05000084	          0.22641611	          0.05884055	          0.05884054	          0.05000039	          0.06609890	          0.05884049	          0.26335988	          0.05000006	          0.05000020	          0.18392002	          0.33840535	          0.20831343	          0.19562380	          0.14036563	          0.05000002	          0.11224562	          0.11224298	          0.05000012	          0.05000025	          0.18111761	          0.05884053	          0.05000016	          0.16214767	          0.25104394	          0.09502556	          0.05000325	          0.14351998	          0.14348474	          0.12444471	          0.05000040	          0.05000009	          0.05239381	          0.05000000	          0.05000009	          0.05000003	          0.56091943	          0.30562502	          0.17224585	          0.34050835	          0.47096261	          0.29251836	          0.05889584	          0.09024431	          0.09584441	
          1.08208370	         -2.92091871	         -2.26543604	          5.94410672	          1.44442320	          0.90057405	         -0.00328664	        -18.04165353	         -1.57512805	          8.07897615	         30.30698622	          3.75724356	         -1.02454517	         -8.32078934	        -13.63375548	          1.46082891	          5.43421676	         11.43786422	         -5.48417233	         21.72398513	         -0.04086586	         -2.23516151	          1.14906891	         -1.76852206	         10.09974673	        -13.49327328	         18.84914979	         -8.31637505	        -13.45997832	          4.71708304	         26.36798276	         15.62150223	         86.51662706	         86.51662706	          0.21329123	          0.08559416	          0.06296768	          0.28989489	          0.19216336	          0.10764963	          0.05000296	          0.05000028	          0.05000048	          0.05884060	          0.09589533	          0.20433754	          0.12444657	          0.08148869	          0.05884842	          0.09631210	          0.45730240	          0.08899201	          0.05000068	          0.05001251	          0.05782849	          0.05884089	          0.28394142	          0.59744952	          0.05884054	          0.05884088	          0.05884052	          0.20913020	          0.16084547	          0.18391172	          0.14325501	          0.25745883	          0.34233507	          0.28101074	          0.25155382	          0.33725451	          0.40522341	          0.05000000	          0.05000003	          0.15179662	          0.05000002	          0.05000000	          0.05000004	          0.06518717	          0.06924419	          0.05385306	          0.05000000	          0.05000001	          0.19239805	          0.05000001	          0.05000001	          0.05000002	          0.05616782	          0.05000012	          0.22379113	          0.05000005	          0.05000033	          0.15628689	          0.32104203	          0.38003709	          0.27167878	          0.15181399	          0.05000024	          0.09538142	          0.17465757	          0.08561925	          0.07620054	          0.15390546	          0.05000003	          0.05884057	          0.49389552	          0.21332562	          0.08074837	          0.05884077	          0.17201970	          0.18057973	          0.15710623	          0.05000002	          0.05000017	          0.05000000	          0.06924413	          0.05000166	          0.05884097	          0.47664359	          0.32937707	          0.20479886	          0.28934840	          0.47474116	          0.24856870	          0.05004698	          0.07668547	          0.08144418	
          1.09269236	         -2.91013083	         -2.46516364	          6.27503335	          1.46158145	          0.89956013	         -0.00301686	        -17.84176036	         -1.97792588	          7.87194335	         29.59421307	          4.12405129	         -0.80669572	        -10.43643326	        -14.22515903	          0.49222019	          4.90055926	         12.28082193	         -5.87816851	         22.63043710	         -0.14518006	         -1.99871943	          1.40393876	         -1.85475710	          9.77505150	        -13.46178615	         18.66784619	         -9.41927307	        -13.45132080	          5.32262901	         27.79657180	         15.58465448	         86.51662706	         86.51662706	          0.32756741	          0.07273400	          0.05350705	          0.35353322	          0.16329162	          0.09147572	          0.05000080	          0.05000009	          0.05000006	          0.05000011	          0.08148749	          0.17363669	          0.10618238	          0.06924539	          0.05000685	          0.08184167	          0.53246216	          0.07562245	          0.05000061	          0.05000069	          0.05000039	          0.05000049	          0.24128040	          0.57750512	          0.05000007	          0.05000039	          0.05000005	          0.17770925	          0.13667914	          0.15627978	          0.12173157	          0.21877669	          0.29090063	          0.23879003	          0.21379043	          0.28658352	          0.34434039	          0.05000000	          0.12089369	          0.17909885	          0.05000003	          0.05000000	          0.05000004	          0.06377649	          0.05884053	          0.05000001	          0.29335069	          0.27081633	          0.35293107	          0.30599933	          0.18391467	          0.12433335	          0.07647665	          0.08078061	          0.19016744	          0.05000053	          0.05000021	          0.13280545	          0.27280682	          0.32293811	          0.23086022	          0.16221714	          0.05000009	          0.08105107	          0.14841643	          0.17336654	          0.06475194	          0.13078215	          0.05000671	          0.05000012	          0.41968977	          0.18127436	          0.12714283	          0.05000020	          0.14617447	          0.15344839	          0.13350168	          0.05020813	          0.05484538	          0.05685657	          0.05884051	          0.05000012	          0.05000044	          0.56374037	          0.35891992	          0.17402872	          0.57223963	          0.52730169	          0.27813046	          0.06042018	          0.09829334	          0.06920753	
